# xmcd
#
# Track frame offsets: 
#        150
#        33709
#        54901
#        73624
#        91994
#        112356
#        134569
#        159710
#        189912
#        206801
#        228019
#        261168
#        283349
#        304428
#
# Disc length: 4342 seconds
#
# Revision: 0
# Processed by: cddbd v1.4PL0 Copyright (c) Steve Scherf et al.
# Submitted via: ExactAudioCopy v0.90a11
#
DISCID=d810f40e
DTITLE=黄舒骏 - 改变1995
DYEAR=1900
DGENRE=
TTITLE0=改变1995
TTITLE1=男女之间
TTITLE2=天堂与地狱
TTITLE3=马不停蹄的忧伤
TTITLE4=雁渡寒潭
TTITLE5=天使
TTITLE6=何德何能
TTITLE7=为你疯狂
TTITLE8=谈恋爱
TTITLE9=爱你
TTITLE10=恋爱综合症
TTITLE11=女朋友
TTITLE12=想到你就心酸酸
TTITLE13=两岸
EXTD=
EXTT0=
EXTT1=
EXTT2=
EXTT3=
EXTT4=
EXTT5=
EXTT6=
EXTT7=
EXTT8=
EXTT9=
EXTT10=
EXTT11=
EXTT12=
EXTT13=
PLAYORDER=
